<svg xmlns="http://www.w3.org/2000/svg" viewBox="0 0 563 231"><defs><style>.cls-1{fill:none;stroke:#ffd810;stroke-miterlimit:10;stroke-width:5px;}</style></defs><title>squiggles</title><g id="artboard2"><path class="cls-1" d="M545.2,212.6c-44,0-44-68-87.92-68s-43.95,68-87.91,68-44-68-87.92-68-43.95,68-87.91,68-44-68-87.92-68-44,68-87.92,68"/><path class="cls-1" d="M545.2,147.6c-44,0-44-68-87.92-68s-43.95,68-87.91,68-44-68-87.92-68-43.95,68-87.91,68-44-68-87.92-68-44,68-87.92,68"/><path class="cls-1" d="M545.2,82.6c-44,0-44-68-87.92-68s-43.95,68-87.91,68-44-68-87.92-68-43.95,68-87.91,68-44-68-87.92-68-44,68-87.92,68"/></g></svg>